<svg width="214" height="214" viewBox="0 0 214 214" fill="none" xmlns="http://www.w3.org/2000/svg">
<path fill-rule="evenodd" clip-rule="evenodd" d="M106.506 1.05611C106.799 0.737649 107.054 0.612926 107.274 0.603414L107.335 0.603703C107.553 0.615253 107.807 0.740597 108.097 1.05611C108.4 1.38714 108.714 1.89691 109.031 2.5941C109.666 3.98642 110.285 6.05819 110.879 8.75121C112.065 14.1323 113.135 21.9306 114.034 31.5807C115.833 50.8774 116.946 77.5421 116.946 107C116.946 136.458 115.833 163.123 114.034 182.419C113.135 192.07 112.065 199.868 110.879 205.249C110.285 207.942 109.666 210.014 109.031 211.406C108.714 212.103 108.4 212.613 108.097 212.944C107.807 213.26 107.553 213.385 107.335 213.397H107.274C107.054 213.387 106.799 213.262 106.506 212.944C106.202 212.613 105.889 212.103 105.571 211.406C104.937 210.014 104.317 207.942 103.724 205.249C102.538 199.868 101.468 192.07 100.569 182.419C98.7697 163.123 97.6563 136.458 97.6563 107C97.6563 77.5421 98.7697 50.8774 100.569 31.5807C101.468 21.9306 102.538 14.1323 103.724 8.75121C104.317 6.05819 104.937 3.98642 105.571 2.5941C105.889 1.89691 106.202 1.38714 106.506 1.05611ZM155.509 31.391C146.319 16.9319 134.49 6.561 121.231 2.23676C137.894 6.10925 152.809 16.6638 164.305 31.7355C178.988 50.9871 188.079 77.5958 188.079 107C188.079 136.404 178.988 163.013 164.305 182.265C152.809 197.336 137.894 207.89 121.231 211.763C134.49 207.439 146.319 197.068 155.509 182.609C167.817 163.245 175.42 136.512 175.42 107C175.42 77.4873 167.817 50.7549 155.509 31.391ZM107.184 214C107.123 214 107.061 214 107 214C47.9056 214 0 166.095 0 107C0 47.9055 47.9056 0 107 0C107.048 0 107.095 4.03728e-05 107.143 0.000120547L107.184 0.000154933L107.301 0C107.478 0 107.654 0.00105313 107.831 0.00315576C166.543 0.449466 214 48.1826 214 107C214 165.817 166.542 213.551 107.829 213.997C107.699 213.998 107.568 213.999 107.438 214C107.392 214 107.347 214 107.301 214C107.262 214 107.224 214 107.184 214ZM128.263 2.72769C176.836 12.5792 213.397 55.5199 213.397 107C213.397 158.48 176.836 201.42 128.263 211.272C170.146 200.333 201.341 157.775 201.341 107C201.341 56.2255 170.146 13.667 128.263 2.72769ZM85.7374 2.7277C37.1643 12.5793 0.602817 55.5199 0.602817 107C0.602817 158.48 37.1643 201.42 85.7374 211.272C43.8541 200.333 12.6592 157.775 12.6592 107C12.6592 56.2256 43.8541 13.667 85.7374 2.7277ZM89.5882 211.565C46.1605 202.303 13.262 159.038 13.262 107C13.262 54.9626 46.1604 11.6974 89.5882 2.43554C73.9988 6.86825 60.0779 17.1284 49.2158 31.3699C34.4453 50.7356 25.3183 77.4758 25.3183 107C25.3183 136.524 34.4453 163.265 49.2158 182.63C60.0779 196.872 73.9988 207.131 89.5882 211.565ZM124.412 211.565C140.001 207.131 153.922 196.872 164.784 182.63C179.554 163.265 188.682 136.524 188.682 107C188.682 77.4758 179.554 50.7356 164.784 31.3699C153.922 17.1284 140.001 6.86825 124.412 2.43554C167.84 11.6974 200.738 54.9626 200.738 107C200.738 159.038 167.839 202.302 124.412 211.565ZM59.0932 182.609C68.603 197.571 80.939 208.156 94.7616 212.193C77.295 208.721 61.6465 197.934 49.6951 182.265C35.0117 163.013 25.9211 136.404 25.9211 107C25.9211 77.5958 35.0117 50.9871 49.6951 31.7355C61.6465 16.0656 77.295 5.27864 94.7616 1.80741C80.939 5.84419 68.603 16.4287 59.0932 31.391C46.7856 50.7549 39.1831 77.4873 39.1831 107C39.1831 136.512 46.7856 163.245 59.0932 182.609ZM109.58 2.34419C109.283 1.69151 108.973 1.16071 108.648 0.771256C109.782 1.05547 110.908 1.69849 112.021 2.69381C113.575 4.08355 115.088 6.14716 116.54 8.8297C119.442 14.1944 122.064 21.9771 124.271 31.6199C128.683 50.9007 131.414 77.5518 131.414 107C131.414 136.448 128.683 163.099 124.271 182.38C122.064 192.023 119.442 199.805 116.54 205.171C115.088 207.853 113.575 209.917 112.021 211.306C110.908 212.301 109.782 212.944 108.648 213.229C108.973 212.839 109.283 212.308 109.58 211.656C110.241 210.205 110.871 208.085 111.467 205.379C112.662 199.961 113.734 192.134 114.635 182.475C116.436 163.155 117.549 136.471 117.549 107C117.549 77.5295 116.436 50.8453 114.635 31.5247C113.734 21.8662 112.662 14.0388 111.467 8.62143C110.871 5.91514 110.241 3.7945 109.58 2.34419ZM97.939 1.61873C83.0832 4.86965 69.7501 15.7475 59.602 31.7144C47.3647 50.9677 39.7859 77.5843 39.7859 107C39.7859 136.416 47.3647 163.032 59.602 182.286C69.7507 198.253 83.0832 209.13 97.939 212.381C86.8123 208.486 76.905 197.775 69.3083 182.582C59.6288 163.224 53.6507 136.501 53.6507 107C53.6507 77.4993 59.6288 50.7766 69.3083 31.4179C76.905 16.2248 86.8123 5.51388 97.939 1.61873ZM116.664 1.61874C131.52 4.86966 144.853 15.7475 155.001 31.7144C167.238 50.9677 174.817 77.5843 174.817 107C174.817 136.416 167.238 163.032 155.001 182.286C144.853 198.253 131.52 209.13 116.664 212.381C127.791 208.486 137.698 197.775 145.295 182.582C154.974 163.224 160.952 136.501 160.952 107C160.952 77.4993 154.974 50.7766 145.295 31.4179C137.698 16.2248 127.791 5.51388 116.664 1.61874ZM105.023 211.656C105.32 212.308 105.63 212.839 105.955 213.229C104.821 212.944 103.695 212.301 102.582 211.306C101.028 209.917 99.5148 207.853 98.0632 205.171C95.1613 199.805 92.5384 192.023 90.3321 182.38C85.9201 163.099 83.1887 136.448 83.1887 107C83.1887 77.5518 85.9201 50.9007 90.3321 31.6199C92.5384 21.9771 95.1613 14.1944 98.0632 8.8297C99.5148 6.14716 101.028 4.08355 102.582 2.69381C103.695 1.69849 104.821 1.05547 105.955 0.771256C105.63 1.16071 105.32 1.69151 105.023 2.34419C104.362 3.7945 103.732 5.91514 103.135 8.62143C101.942 14.0388 100.869 21.8662 99.9681 31.5247C98.1669 50.8453 97.0535 77.5295 97.0535 107C97.0535 136.471 98.1669 163.155 99.9681 182.475C100.869 192.134 101.942 199.961 103.135 205.379C103.732 208.085 104.362 210.205 105.023 211.656ZM110.808 1.04022C111.355 1.36842 111.894 1.77128 112.422 2.24447C114.047 3.69737 115.6 5.82617 117.069 8.54288C120.009 13.9767 122.647 21.8196 124.858 31.4855C129.283 50.822 132.017 77.5204 132.017 107C132.017 136.48 129.283 163.178 124.858 182.514C122.647 192.18 120.009 200.023 117.069 205.457C115.6 208.174 114.047 210.303 112.422 211.756C111.894 212.229 111.355 212.632 110.808 212.96C114.794 211.961 118.627 209.273 122.208 205.117C126.827 199.755 131.001 191.979 134.512 182.344C141.533 163.076 145.882 136.438 145.882 107C145.882 77.562 141.533 50.9236 134.512 31.6559C131.001 22.0208 126.827 14.2447 122.208 8.88305C118.627 4.72657 114.794 2.03894 110.808 1.04022ZM103.795 212.96C103.247 212.632 102.709 212.229 102.18 211.756C100.555 210.303 99.003 208.174 97.5334 205.457C94.5934 200.023 91.9561 192.18 89.7444 182.514C85.3197 163.178 82.5859 136.48 82.5859 107C82.5859 77.5204 85.3197 50.822 89.7444 31.4855C91.9561 21.8196 94.5934 13.9767 97.5334 8.54288C99.003 5.82617 100.555 3.69737 102.18 2.24447C102.709 1.77128 103.247 1.36842 103.795 1.04022C99.8084 2.03894 95.9763 4.72657 92.395 8.88305C87.7756 14.2447 83.6023 22.0208 80.0909 31.6559C73.0698 50.9236 68.7211 77.562 68.7211 107C68.7211 136.438 73.0698 163.076 80.0909 182.344C83.6023 191.979 87.7756 199.755 92.395 205.117C95.9763 209.273 99.8084 211.961 103.795 212.96ZM122.664 8.48959C119.789 5.15275 116.723 2.71356 113.515 1.32734C125.609 4.166 136.508 15.1924 144.756 31.6875C154.385 50.946 160.349 77.5729 160.349 107C160.349 136.427 154.385 163.054 144.756 182.312C136.508 198.808 125.609 209.834 113.515 212.673C116.723 211.287 119.789 208.847 122.664 205.511C127.348 200.074 131.553 192.224 135.078 182.55C142.129 163.201 146.484 136.49 146.484 107C146.484 77.5102 142.129 50.7991 135.078 31.4495C131.553 21.776 127.348 13.9264 122.664 8.48959ZM91.9386 205.511C94.8134 208.847 97.8794 211.286 101.088 212.673C88.9939 209.834 78.0949 198.808 69.8472 182.312C60.2178 163.054 54.2535 136.427 54.2535 107C54.2535 77.5729 60.2178 50.946 69.8472 31.6875C78.0949 15.1924 88.9939 4.16597 101.088 1.32733C97.8794 2.71355 94.8134 5.15275 91.9386 8.48959C87.2547 13.9264 83.0501 21.776 79.5248 31.4495C72.4737 50.7991 68.1183 77.5102 68.1183 107C68.1183 136.49 72.4737 163.201 79.5248 182.55C83.0501 192.224 87.2547 200.074 91.9386 205.511Z" fill="url(#paint0_radial_127_2044)"/>
<defs>
<radialGradient id="paint0_radial_127_2044" cx="0" cy="0" r="1" gradientUnits="userSpaceOnUse" gradientTransform="translate(107 107) rotate(90.8138) scale(106.107 366.018)">
<stop stop-color="#D9D9D9"/>
<stop offset="1" stop-color="#8F8F8F" stop-opacity="0.12"/>
</radialGradient>
</defs>
</svg>
