<svg width="35" height="35" viewBox="0 0 35 35" fill="none" xmlns="http://www.w3.org/2000/svg" class="PJLV PJLV-iPJLV-css"><path d="M28.0001 4.66675H7.00008C5.71091 4.66675 4.66675 5.71091 4.66675 7.00008V28.0001C4.66675 29.2892 5.71091 30.3334 7.00008 30.3334H28.0001C29.2892 30.3334 30.3334 29.2892 30.3334 28.0001V7.00008C30.3334 5.71091 29.2892 4.66675 28.0001 4.66675ZM12.7797 25.6667H9.33808V14.5927H12.7797V25.6667ZM11.0239 13.0096C9.91441 13.0096 9.01725 12.1101 9.01725 11.0029C9.01725 9.89575 9.91558 8.99741 11.0239 8.99741C12.1299 8.99741 13.0294 9.89691 13.0294 11.0029C13.0294 12.1101 12.1299 13.0096 11.0239 13.0096ZM25.6714 25.6667H22.2321V20.2814C22.2321 18.9969 22.2087 17.3449 20.4436 17.3449C18.6527 17.3449 18.3774 18.7437 18.3774 20.1881V25.6667H14.9381V14.5927H18.2397V16.1059H18.2864C18.7461 15.2356 19.8684 14.3174 21.5426 14.3174C25.0274 14.3174 25.6714 16.6111 25.6714 19.5931V25.6667V25.6667Z" fill="white"></path></svg>