<svg width="35" height="35" viewBox="0 0 35 35" fill="none" xmlns="http://www.w3.org/2000/svg" class="PJLV PJLV-iPJLV-css"><path d="M32.2958 4.58633C31.7708 4.14113 30.9462 4.07743 30.0936 4.41973H30.0922C29.1955 4.77953 4.70953 15.2823 3.71273 15.7114C3.53143 15.7744 1.94803 16.3652 2.11113 17.6812C2.25673 18.8677 3.52933 19.3591 3.68473 19.4158L9.90983 21.5473C10.3228 22.9221 11.8453 27.9943 12.182 29.0779C12.392 29.7534 12.7343 30.641 13.3342 30.8237C13.8606 31.0267 14.3842 30.8412 14.723 30.5752L18.5289 27.0451L24.6728 31.8366L24.8191 31.9241C25.2363 32.1089 25.636 32.2013 26.0175 32.2013C26.3122 32.2013 26.595 32.146 26.8652 32.0354C27.7857 31.6574 28.1539 30.7803 28.1924 30.6809L32.7816 6.82703C33.0616 5.55303 32.6724 4.90483 32.2958 4.58633ZM15.3999 22.3999L13.2999 27.9999L11.1999 20.9999L27.2999 9.09993L15.3999 22.3999Z" fill="white"></path></svg>